<svg width="162" height="36" xmlns="http://www.w3.org/2000/svg"><defs><linearGradient x1="50%" y1="0%" x2="50%" y2="100%" id="a"><stop stop-color="#005AFF" offset="0%"/><stop stop-color="#008DFF" offset="100%"/></linearGradient><linearGradient x1="100%" y1="50%" x2="11.353%" y2="50%" id="b"><stop stop-color="#00C5FF" offset="0%"/><stop stop-color="#009AFF" offset="100%"/></linearGradient></defs><g fill="none" fill-rule="evenodd"><path d="M62.221 25.391c1.274 0 2.366-.305 3.276-.914a4.98 4.98 0 001.939-2.444V25.2h3.822V10.076h-3.822v3.14a4.907 4.907 0 00-1.939-2.43c-.91-.601-2.002-.901-3.276-.901s-2.42.31-3.44.928c-1.019.619-1.815 1.515-2.388 2.689-.574 1.174-.86 2.553-.86 4.136 0 1.583.286 2.962.86 4.136.573 1.174 1.37 2.07 2.389 2.689 1.019.619 2.165.928 3.44.928zm1.202-3.385c-1.202 0-2.166-.387-2.894-1.16-.728-.774-1.092-1.843-1.092-3.208 0-1.365.364-2.439 1.092-3.222.728-.782 1.692-1.173 2.893-1.173 1.165 0 2.125.395 2.88 1.187.756.792 1.134 1.861 1.134 3.208 0 1.328-.378 2.389-1.133 3.18-.756.792-1.716 1.188-2.88 1.188zM84.24 25.2v-3.221h-7.426l7.153-8.873v-3.03H72.774v3.194h6.797l-6.961 8.872V25.2h11.63zm3.29-17.39c.71 0 1.284-.196 1.72-.587.437-.391.656-.887.656-1.488 0-.619-.219-1.124-.656-1.515-.436-.391-1.01-.587-1.72-.587s-1.283.196-1.72.587c-.436.391-.655.896-.655 1.515 0 .6.219 1.097.656 1.488.436.391 1.01.587 1.72.587zm1.912 17.39V10.076h-3.85V25.2h3.85zm6.293 0v-8.026c0-1.292.319-2.275.956-2.949.637-.673 1.492-1.01 2.566-1.01 1.037 0 1.852.314 2.443.942.592.628.888 1.524.888 2.69V25.2h3.822v-8.026c0-1.292.318-2.275.955-2.949.637-.673 1.492-1.01 2.566-1.01 1.038 0 1.852.314 2.444.942.591.628.887 1.524.887 2.69V25.2h3.822v-8.79c0-2.094-.533-3.709-1.597-4.846-1.065-1.138-2.516-1.707-4.355-1.707-1.164 0-2.215.305-3.153.915a5.71 5.71 0 00-2.115 2.47c-.456-1.091-1.133-1.929-2.034-2.511-.901-.582-1.961-.874-3.18-.874-1.147 0-2.153.269-3.017.806-.865.537-1.497 1.296-1.898 2.28v-2.867h-3.85V25.2h3.85zm29.144.191c1.201 0 2.261-.287 3.18-.86a4.819 4.819 0 001.98-2.389V25.2h3.849V10.076h-3.85v8.026c0 1.329-.327 2.348-.982 3.058s-1.538 1.064-2.648 1.064c-1.056 0-1.893-.332-2.512-.996-.619-.664-.928-1.597-.928-2.798v-8.354h-3.822v8.79c0 2.057.519 3.659 1.556 4.805 1.038 1.147 2.43 1.72 4.177 1.72zm19.534-.191v-3.303h-1.501c-.692 0-1.183-.146-1.475-.437-.29-.291-.436-.8-.436-1.529v-6.607h3.385v-3.248H141v-3.74h-3.85v3.74h-2.102v3.248h2.102v6.553c0 1.91.45 3.276 1.352 4.095.9.819 2.197 1.228 3.89 1.228h2.02zm5.557-20.202h-3.85V25.2h3.85v-8.026c0-1.329.327-2.348.983-3.058.655-.71 1.528-1.064 2.62-1.064 1.074 0 1.92.332 2.54.996.618.664.928 1.597.928 2.798V25.2h3.822v-8.79c0-2.075-.52-3.686-1.557-4.833-1.037-1.146-2.43-1.72-4.177-1.72-1.2 0-2.26.287-3.18.86a4.819 4.819 0 00-1.98 2.39V4.997z" fill="#2C2F3B" fill-rule="nonzero"/><path fill="url(#a)" transform="rotate(90 12.575 17.825)" d="M18.9 5.25h10.5L17.325 29.4l-5.25-10.5-5.25 10.5L-5.25 5.25h10.5l6.825 13.65z"/><path fill="url(#b)" d="M24.15 10.5V0L48.3 12.075l-10.5 5.25 10.5 5.25L24.15 34.65v-10.5l13.65-6.825z" transform="translate(1)"/></g></svg>